<?xml version="1.0" encoding="utf-8"?>
<!-- Generator: Adobe Illustrator 21.0.0, SVG Export Plug-In . SVG Version: 6.00 Build 0)  -->
<svg version="1.1"
	 id="svg26" inkscape:export-filename="/home/ahin/Desktop/ahin_webpage/webpage-js-opt-edit/images/homepage/slider/WO3-SF.png" inkscape:export-xdpi="96" inkscape:export-ydpi="96" inkscape:version="0.92.3 (2405546, 2018-03-11)" sodipodi:docname="drawing.svg" xmlns:cc="http://creativecommons.org/ns#" xmlns:dc="http://purl.org/dc/elements/1.1/" xmlns:inkscape="http://www.inkscape.org/namespaces/inkscape" xmlns:rdf="http://www.w3.org/1999/02/22-rdf-syntax-ns#" xmlns:sodipodi="http://sodipodi.sourceforge.net/DTD/sodipodi-0.dtd" xmlns:svg="http://www.w3.org/2000/svg"
	 xmlns="http://www.w3.org/2000/svg" xmlns:xlink="http://www.w3.org/1999/xlink" x="0px" y="0px" viewBox="0 0 816 500"
	 style="enable-background:new 0 0 816 500;" xml:space="preserve">
<style type="text/css">
	.st0{fill:#FFFFFF;}
	.st1{fill:#333333;}
	.st2{font-family:'YuGothicUI-Semilight';}
	.st3{font-size:32px;}
	.st4{fill:#00FF00;}
	.st5{font-size:24px;}
	.st6{enable-background:new    ;}
</style>
<rect x="239" y="1" class="st0" width="577" height="497"/>
<sodipodi:namedview  bordercolor="#666666" borderopacity="1.0" id="base" inkscape:current-layer="g174" inkscape:cx="-53.168444" inkscape:cy="277.26273" inkscape:document-units="mm" inkscape:pageopacity="0.0" inkscape:pageshadow="2" inkscape:window-height="1145" inkscape:window-maximized="1" inkscape:window-width="1551" inkscape:window-x="49" inkscape:window-y="27" inkscape:zoom="0.76095916" pagecolor="#ffffff" showgrid="false" units="px">
	</sodipodi:namedview>
<g id="flowRoot45" transform="matrix(0.26458333,0,0,0.26458333,0,164.70832)">
</g>
<rect id="rect43" x="-1.2" y="1" class="st1" width="240.2" height="497"/>
<g>
	<text transform="matrix(1 0 0 1 12.0936 34.9967)" class="st0 st2 st3">Facility:</text>
	<text transform="matrix(1 0 0 1 12.0939 72.9967)" class="st4 st2 st5">RDE &amp; RRDE</text>
</g>
<g>
	<text transform="matrix(1 0 0 1 12.0939 188.4967)" class="st0 st2 st3">Purpose:</text>
	<text transform="matrix(1 0 0 1 12.0935 220.4967)" class="st6"><tspan x="0" y="0" class="st4 st2 st5">Electrochemical </tspan><tspan x="0" y="28.8" class="st4 st2 st5">measurements</tspan></text>
</g>
<g>
	<text transform="matrix(1 0 0 1 9.0938 341.9967)" class="st0 st2 st3">Capabilities:</text>
	<text transform="matrix(1 0 0 1 9.0934 373.9967)" class="st6"><tspan x="0" y="0" class="st4 st2 st5">Screening catalysts </tspan><tspan x="0" y="28.8" class="st4 st2 st5">relevant to energy </tspan><tspan x="0" y="57.6" class="st4 st2 st5">generation/storage</tspan></text>
</g>
<g>
	
		<image style="overflow:visible;opacity:0.75;" width="307" height="503" xlink:href="B9A9D21F.png"  transform="matrix(1 0 0 1 472 5.4836)">
	</image>
	<g>
		
			<image style="overflow:visible;" width="290" height="491" xlink:href="C:\Users\Ahin Roy\Desktop\Picture1.png"  transform="matrix(0.9633 0 0 0.9633 478.6508 13.5164)">
		</image>
	</g>
</g>
</svg>
